<svg xmlns="http://www.w3.org/2000/svg" xmlns:xlink="http://www.w3.org/1999/xlink" width="1920" zoomAndPan="magnify" viewBox="0 0 1440 809.999993" height="1080" preserveAspectRatio="xMidYMid meet" version="1.0"><defs><clipPath id="7eb5991e3c"><path d="M 136.171875 102 L 1166.660156 102 L 1166.660156 345 L 136.171875 345 Z M 136.171875 102 " clip-rule="nonzero"/></clipPath><clipPath id="9fd7642b86"><path d="M 417 258 L 488 258 L 488 805.800781 L 417 805.800781 Z M 417 258 " clip-rule="nonzero"/></clipPath><clipPath id="3ad87b75b3"><path d="M 815 258 L 886 258 L 886 805.800781 L 815 805.800781 Z M 815 258 " clip-rule="nonzero"/></clipPath></defs><path fill="#5271ff" d="M 899.878906 98.542969 C 870.804688 43.898438 770.632812 3.59375 651.449219 3.59375 C 532.265625 3.59375 432.027344 43.898438 402.953125 98.542969 C 554.167969 77.304688 742.679688 76.449219 899.878906 98.542969 " fill-opacity="1" fill-rule="nonzero"/><g clip-path="url(#7eb5991e3c)"><path fill="#5271ff" d="M 651.449219 102.75 C 373.882812 102.75 147.550781 154.367188 136.566406 218.941406 C 136.304688 220.582031 136.171875 222.226562 136.171875 223.871094 C 136.171875 290.679688 366.515625 344.859375 650.792969 344.925781 C 650.855469 344.925781 650.527344 344.925781 652.039062 344.925781 C 936.316406 344.859375 1166.660156 290.679688 1166.660156 223.871094 C 1166.660156 222.226562 1166.527344 220.582031 1166.265625 218.941406 C 1155.28125 154.367188 928.949219 102.75 651.449219 102.75 Z M 974.402344 181.128906 C 1011.628906 181.128906 1041.886719 189.414062 1041.886719 199.609375 C 1041.886719 209.800781 1011.628906 218.085938 974.402344 218.085938 C 937.105469 218.085938 906.917969 209.800781 906.917969 199.609375 C 906.917969 189.414062 937.105469 181.128906 974.402344 181.128906 Z M 924.742188 306.789062 C 924.742188 314.285156 902.574219 320.332031 875.148438 320.332031 C 847.71875 320.332031 825.488281 314.285156 825.488281 306.789062 C 825.488281 299.292969 847.71875 293.175781 875.148438 293.175781 C 902.574219 293.175781 924.742188 299.292969 924.742188 306.789062 Z M 651.449219 137.996094 C 688.675781 137.996094 718.933594 146.28125 718.933594 156.472656 C 718.933594 166.664062 688.675781 174.949219 651.449219 174.949219 C 614.15625 174.949219 583.964844 166.664062 583.964844 156.472656 C 583.964844 146.28125 614.15625 137.996094 651.449219 137.996094 Z M 427.75 293.175781 C 455.113281 293.175781 477.34375 299.292969 477.34375 306.789062 C 477.34375 314.285156 455.113281 320.332031 427.75 320.332031 C 400.324219 320.332031 378.089844 314.285156 378.089844 306.789062 C 378.089844 299.292969 400.324219 293.175781 427.75 293.175781 Z M 328.429688 181.128906 C 365.726562 181.128906 395.980469 189.414062 395.980469 199.609375 C 395.980469 209.800781 365.726562 218.085938 328.429688 218.085938 C 291.203125 218.085938 260.945312 209.800781 260.945312 199.609375 C 260.945312 189.414062 291.203125 181.128906 328.429688 181.128906 Z M 446.824219 251.355469 C 446.824219 220.453125 538.449219 195.398438 651.449219 195.398438 C 764.449219 195.398438 856.074219 220.453125 856.074219 251.355469 C 856.074219 282.261719 764.449219 307.316406 651.449219 307.316406 C 538.449219 307.316406 446.824219 282.261719 446.824219 251.355469 " fill-opacity="1" fill-rule="nonzero"/></g><path fill="#5271ff" d="M 821.9375 233.339844 C 744.980469 191.519531 491.945312 199.609375 465.503906 246.753906 C 458.597656 258.722656 468.992188 268.78125 481.160156 275.160156 C 521.742188 296.136719 605.339844 299.488281 651.449219 297.976562 C 607.578125 296.464844 523.121094 290.019531 484.511719 268.914062 C 480.171875 266.480469 474.582031 262.796875 472.214844 258.457031 C 465.242188 246.292969 493.457031 236.035156 506.875 232.023438 C 642.242188 192.113281 932.042969 233.40625 796.285156 277.988281 C 754.253906 291.46875 695.582031 296.464844 651.449219 297.976562 C 684.136719 299.03125 717.027344 297.847656 749.648438 293.769531 C 772.472656 290.746094 825.554688 282.128906 837.195312 262.207031 C 840.089844 257.40625 840.15625 251.554688 837.328125 246.6875 C 836.078125 244.453125 827.789062 236.496094 821.9375 233.339844 " fill-opacity="1" fill-rule="nonzero"/><g clip-path="url(#9fd7642b86)"><path fill="#5271ff" d="M 487.472656 258.65625 C 476.882812 405.355469 444.195312 660.285156 417.226562 805.800781 C 427.882812 657.917969 460.703125 403.25 487.472656 258.65625 " fill-opacity="1" fill-rule="nonzero"/></g><g clip-path="url(#3ad87b75b3)"><path fill="#5271ff" d="M 815.359375 258.65625 C 842.589844 405.683594 875.148438 660.15625 885.605469 805.800781 C 863.898438 688.691406 840.878906 515.035156 828.183594 396.082031 C 823.25 350.316406 818.714844 304.554688 815.359375 258.65625 " fill-opacity="1" fill-rule="nonzero"/></g><path fill="#5271ff" d="M 746.625 712.824219 C 743.007812 700.660156 732.285156 677.976562 745.046875 655.550781 C 750.964844 645.230469 754.847656 633.523438 758.398438 622.082031 C 760.503906 615.246094 761.6875 607.617188 755.636719 601.171875 C 748.925781 594.003906 742.613281 586.511719 735.96875 579.210938 C 734.652344 577.832031 722.289062 571.714844 714.789062 566.980469 C 646.515625 523.320312 645.859375 519.046875 635.730469 518.191406 C 631.714844 517.863281 627.96875 514.835938 624.085938 512.996094 C 631.058594 513.0625 635.792969 510.234375 640.070312 506.089844 C 643.753906 502.539062 642.371094 499.382812 638.753906 497.742188 C 628.625 493.136719 620.074219 501.621094 616.785156 487.152344 C 616.324219 484.917969 616.0625 482.222656 614.679688 480.839844 C 612.90625 479.132812 610.011719 477.421875 607.644531 477.488281 C 601.261719 477.75 594.816406 478.539062 588.570312 480.050781 C 585.214844 480.839844 582.1875 483.339844 579.292969 485.511719 C 576.398438 487.746094 574.230469 491.230469 571.074219 492.742188 C 564.625 495.964844 555.878906 495.636719 553.183594 500.238281 C 549.433594 506.550781 550.878906 511.089844 557.324219 515.429688 C 562.523438 518.914062 567.519531 522.660156 572.652344 526.210938 C 575.214844 527.988281 581.664062 531.144531 582.78125 535.746094 C 583.964844 540.875 584.753906 546.136719 585.410156 551.460938 C 587.1875 566.585938 584.949219 566.847656 582.453125 598.34375 C 582.1875 601.699219 583.636719 605.183594 583.832031 608.601562 C 584.425781 616.429688 583.304688 617.152344 579.820312 623.398438 C 579.164062 624.054688 578.503906 625.371094 577.847656 627.933594 C 575.941406 633 573.769531 644.503906 564.296875 653.515625 C 547.589844 660.089844 551.996094 658.25 547.195312 661.40625 C 550.945312 666.597656 549.628906 665.085938 552.394531 667.585938 C 546.671875 674.359375 553.773438 675.34375 556.734375 677.25 C 563.835938 681.722656 566.535156 680.210938 571.136719 670.414062 C 572.386719 671.136719 575.875 667.191406 576.859375 664.230469 C 593.238281 642.863281 600.078125 634.183594 614.21875 619.914062 C 617.902344 616.164062 621.324219 616.492188 624.351562 621.03125 C 627.835938 626.226562 626.390625 625.238281 659.078125 646.871094 C 660.394531 647.726562 662.039062 648.449219 663.617188 648.582031 C 671.574219 649.109375 681.308594 659.496094 683.480469 658.578125 C 683.480469 661.601562 686.242188 664.957031 688.28125 663.902344 C 686.96875 674.488281 685.78125 684.15625 680.652344 692.902344 C 675.589844 701.515625 669.40625 708.75 658.355469 711.574219 C 662.234375 714.667969 666.117188 718.019531 669.601562 717.625 C 673.878906 717.230469 677.957031 713.8125 682.101562 711.640625 C 682.230469 711.574219 682.230469 711.246094 682.296875 711.050781 C 685.519531 694.875 697.886719 683.828125 705.121094 669.886719 C 703.738281 693.492188 699.53125 715.652344 674.667969 728.933594 C 680.457031 733.144531 690.191406 741.824219 692.425781 730.710938 C 692.753906 729.265625 695.453125 728.277344 697.753906 726.632812 C 698.28125 706.578125 718.277344 692.441406 719.65625 680.933594 C 722.484375 656.933594 737.746094 641.019531 752.871094 624.582031 C 752.9375 627.738281 752.808594 630.894531 751.6875 633.589844 C 747.480469 643.320312 743.074219 653.054688 738.46875 662.652344 C 732.546875 675.015625 728.996094 687.707031 733.667969 701.1875 C 735.441406 706.445312 736.101562 712.824219 742.28125 715.652344 C 743.597656 716.246094 745.046875 716.507812 746.425781 716.902344 C 746.492188 715.585938 746.953125 714.074219 746.625 712.824219 " fill-opacity="1" fill-rule="nonzero"/></svg>